<svg version="1.1" id="Layer_1" xmlns="http://www.w3.org/2000/svg" xmlns:xlink="http://www.w3.org/1999/xlink" x="0px" y="0px"
	 width="100%" viewBox="0 0 192 152" enable-background="new 0 0 192 152" xml:space="preserve">
<path fill="#FDFDFE" opacity="1.000000" stroke="none" 
	d="
M116.000000,153.000000 
	C77.333336,153.000000 39.166672,153.000000 1.000005,153.000000 
	C1.000003,102.333336 1.000003,51.666676 1.000002,1.000012 
	C64.999992,1.000008 128.999985,1.000008 192.999969,1.000004 
	C192.999985,51.666656 192.999985,102.333313 193.000000,152.999985 
	C167.500000,153.000000 142.000000,153.000000 116.000000,153.000000 
M150.206329,128.632172 
	C152.085068,129.878204 153.963791,131.124252 156.187042,132.890976 
	C157.693939,134.300720 159.200851,135.710464 161.030426,137.747925 
	C163.013153,141.452682 164.995880,145.157440 167.416092,149.679657 
	C167.416092,144.102707 167.416092,139.221680 167.416092,134.665512 
	C168.103241,135.551743 169.074478,136.804398 170.045715,138.057053 
	C170.574936,137.843719 171.104141,137.630386 171.633347,137.417053 
	C170.870102,134.225647 170.106873,131.034225 169.221298,127.134338 
	C168.458664,125.425629 167.696030,123.716911 167.815659,121.960556 
	C169.405197,121.866066 170.994736,121.771576 173.282379,121.635590 
	C173.282379,86.598907 173.282379,51.950756 173.282379,17.059372 
	C160.443863,17.059372 147.642731,17.165094 134.845657,16.983801 
	C131.711319,16.939398 130.184387,17.905180 128.950089,20.828899 
	C115.251213,53.277931 101.397675,85.661652 87.621239,118.078033 
	C87.155029,119.175041 87.060349,120.429932 86.717476,121.942039 
	C95.292801,121.942039 103.277039,122.093025 111.245766,121.808891 
	C112.757782,121.754982 114.834206,120.311310 115.572235,118.932060 
	C117.983910,114.425056 119.897552,109.651566 121.984924,105.735237 
	C122.818932,110.624969 125.433899,114.201683 130.221603,116.940865 
	C131.457275,117.693878 132.692932,118.446892 134.228973,119.761032 
	C135.393814,120.224174 136.558655,120.687317 138.130493,121.710716 
	C140.405411,122.848457 142.680328,123.986198 145.316406,125.663109 
	C146.811752,126.473663 148.307098,127.284218 150.206329,128.632172 
M67.862526,100.359711 
	C73.226860,94.066208 78.591194,87.772705 84.411697,80.944016 
	C81.431396,94.843102 78.564911,108.211395 75.647133,121.818924 
	C78.159897,121.818924 79.949821,121.818924 81.988892,121.818924 
	C95.308708,90.452774 108.666389,59.127831 121.858856,27.733458 
	C123.206871,24.525574 123.564049,20.901323 124.477890,17.063398 
	C115.788696,17.063398 107.966469,16.905590 100.160896,17.195906 
	C98.590698,17.254307 96.620537,18.677320 95.625343,20.046001 
	C90.442719,27.173658 85.524368,34.493191 80.496895,41.734039 
	C76.388840,47.650700 72.256737,53.550659 67.562744,60.278667 
	C66.879211,57.846970 66.456390,56.633686 66.200241,55.386177 
	C63.826839,43.826847 61.552319,32.246307 59.035854,20.718472 
	C58.738346,19.355606 57.180996,17.236361 56.173519,17.216705 
	C43.783447,16.974976 31.387014,17.059202 17.892002,17.059202 
	C21.114561,21.355993 23.987917,24.581470 26.108624,28.242886 
	C27.372826,30.425539 28.398300,33.485653 27.920313,35.821720 
	C23.955555,55.198715 19.589708,74.493340 15.398675,93.824478 
	C13.403291,103.028183 11.524248,112.257118 9.539882,121.725708 
	C18.560217,121.725708 26.999254,121.725708 35.677666,121.725708 
	C38.862320,107.148743 42.011742,92.733040 45.161167,78.317345 
	C45.486755,78.292358 45.812344,78.267372 46.137932,78.242386 
	C48.083241,89.293152 50.028553,100.343925 52.108196,112.157822 
	C57.514591,108.128418 62.415112,104.476044 67.862526,100.359711 
z"/>
<path fill="#030303" opacity="1.000000" stroke="none" 
	d="
M67.589081,100.591690 
	C62.415112,104.476044 57.514591,108.128418 52.108196,112.157822 
	C50.028553,100.343925 48.083241,89.293152 46.137932,78.242386 
	C45.812344,78.267372 45.486755,78.292358 45.161167,78.317345 
	C42.011742,92.733040 38.862320,107.148743 35.677666,121.725708 
	C26.999254,121.725708 18.560217,121.725708 9.539882,121.725708 
	C11.524248,112.257118 13.403291,103.028183 15.398675,93.824478 
	C19.589708,74.493340 23.955555,55.198715 27.920313,35.821720 
	C28.398300,33.485653 27.372826,30.425539 26.108624,28.242886 
	C23.987917,24.581470 21.114561,21.355993 17.892002,17.059202 
	C31.387014,17.059202 43.783447,16.974976 56.173519,17.216705 
	C57.180996,17.236361 58.738346,19.355606 59.035854,20.718472 
	C61.552319,32.246307 63.826839,43.826847 66.200241,55.386177 
	C66.456390,56.633686 66.879211,57.846970 67.562744,60.278667 
	C72.256737,53.550659 76.388840,47.650700 80.496895,41.734039 
	C85.524368,34.493191 90.442719,27.173658 95.625343,20.046001 
	C96.620537,18.677320 98.590698,17.254307 100.160896,17.195906 
	C107.966469,16.905590 115.788696,17.063398 124.477890,17.063398 
	C123.564049,20.901323 123.206871,24.525574 121.858856,27.733458 
	C108.666389,59.127831 95.308708,90.452774 81.988892,121.818924 
	C79.949821,121.818924 78.159897,121.818924 75.647133,121.818924 
	C78.564911,108.211395 81.431396,94.843102 84.411697,80.944016 
	C78.591194,87.772705 73.226860,94.066208 67.589081,100.591690 
z"/>
<path fill="#1B93C9" opacity="1.000000" stroke="none" 
	d="
M122.002731,104.980568 
	C119.897552,109.651566 117.983910,114.425056 115.572235,118.932060 
	C114.834206,120.311310 112.757782,121.754982 111.245766,121.808891 
	C103.277039,122.093025 95.292801,121.942039 86.717476,121.942039 
	C87.060349,120.429932 87.155029,119.175041 87.621239,118.078033 
	C101.397675,85.661652 115.251213,53.277931 128.950089,20.828899 
	C130.184387,17.905180 131.711319,16.939398 134.845657,16.983801 
	C147.642731,17.165094 160.443863,17.059372 173.282379,17.059372 
	C173.282379,51.950756 173.282379,86.598907 173.282379,121.635590 
	C170.994736,121.771576 169.405197,121.866066 167.180054,121.942322 
	C166.544449,121.924080 166.146973,121.890480 165.956818,121.623260 
	C164.178207,120.236427 162.589752,119.116821 160.859894,117.710030 
	C159.813416,116.945267 158.908340,116.467690 157.812668,115.724258 
	C156.416229,114.964088 155.210403,114.469757 153.787048,113.692429 
	C151.714249,112.929344 149.858948,112.449257 147.945221,111.625092 
	C146.568726,110.533150 145.250687,109.785301 144.529999,109.376389 
	C142.741669,111.593216 141.373367,113.289391 139.968231,114.700508 
	C139.619400,114.093971 139.307388,113.772476 138.995377,113.450989 
	C138.811951,113.663628 138.628525,113.876259 138.445099,114.088890 
	C138.958527,114.394310 139.471939,114.699730 139.987457,115.406204 
	C139.234192,117.588333 138.478836,119.369392 137.723495,121.150459 
	C136.558655,120.687317 135.393814,120.224174 134.100922,119.098770 
	C134.310684,116.969955 134.648468,115.503403 135.291000,114.008118 
	C136.047989,113.627762 136.500229,113.276154 136.967087,112.544540 
	C136.978134,109.779037 136.974579,107.393539 137.218567,104.833893 
	C137.643677,103.899277 137.821213,103.138809 138.311584,102.217987 
	C140.075058,101.312836 141.525711,100.568031 143.294952,99.758286 
	C145.084091,98.817825 146.554642,97.942322 148.359924,97.015305 
	C150.181656,96.012787 151.668671,95.061790 153.452316,94.050034 
	C154.511108,93.367722 155.273270,92.746162 156.324249,92.005783 
	C157.405823,91.249336 158.198547,90.611694 159.259796,89.866814 
	C160.021805,89.182449 160.515289,88.605316 161.314545,87.872314 
	C162.725327,85.476631 163.830353,83.236824 164.982086,80.624100 
	C164.992371,79.502190 164.955917,78.753189 164.891281,77.639374 
	C163.846588,75.263443 162.830078,73.252319 161.705490,71.027367 
	C159.972610,73.145271 158.427719,75.033432 156.683502,77.015854 
	C156.220505,77.266121 156.035172,77.487648 155.617050,77.854752 
	C154.483383,78.587730 153.660812,79.240654 152.523468,79.962372 
	C150.787521,80.976929 149.366348,81.922684 147.604401,82.915985 
	C146.807999,83.016838 146.352402,83.070137 145.863800,82.647728 
	C145.830795,70.274048 145.830795,58.376087 145.830795,45.273045 
	C141.001114,57.090572 136.470963,67.779488 132.306396,78.608986 
	C131.074921,81.811317 129.435623,82.975021 126.078415,82.773788 
	C121.570961,82.503624 117.035126,82.706841 112.511475,82.706841 
	C112.316803,83.198776 112.122131,83.690720 111.927460,84.182655 
	C116.315704,88.467834 120.703949,92.753021 125.319946,97.039673 
	C125.547691,97.041145 126.003105,97.050148 125.998566,97.370422 
	C125.990646,98.117775 125.987259,98.544853 125.612076,98.986336 
	C124.499367,100.016609 123.758453,101.032478 122.894356,102.336884 
	C122.515030,103.410477 122.258881,104.195526 122.002731,104.980568 
z"/>
<path fill="#1780BA" opacity="1.000000" stroke="none" 
	d="
M125.983879,98.971924 
	C125.987259,98.544853 125.990646,98.117775 126.134560,97.146927 
	C127.782204,97.082314 129.289322,97.561485 130.983444,98.057961 
	C131.170456,98.075272 131.536224,97.989731 131.662628,98.202560 
	C131.673920,98.768730 131.432175,98.970009 130.789139,99.123932 
	C130.263046,99.856102 130.011642,100.483551 129.760223,101.110992 
	C130.513657,101.058472 131.267090,101.005943 132.268555,101.015015 
	C132.670410,101.149940 132.824203,101.223267 132.981293,101.608795 
	C133.312546,102.628639 133.640503,103.336273 133.936554,104.404678 
	C133.598480,106.170494 133.292267,107.575523 132.657501,108.985222 
	C131.877899,109.669151 131.426880,110.348419 130.935120,111.418076 
	C130.553787,113.350266 130.213181,114.892052 129.872574,116.433846 
	C125.433899,114.201683 122.818932,110.624969 121.993828,105.357903 
	C122.258881,104.195526 122.515030,103.410477 123.224670,102.318924 
	C124.119606,102.007195 124.561028,102.001968 125.106720,102.280113 
	C125.821945,104.371567 126.432907,106.179649 127.043869,107.987732 
	C127.703064,107.656509 128.362274,107.325287 129.021469,106.994072 
	C127.679855,105.330429 126.338242,103.666786 125.122391,101.705391 
	C125.493408,100.595726 125.738640,99.783829 125.983879,98.971924 
z"/>
<path fill="#219FD2" opacity="1.000000" stroke="none" 
	d="
M140.005066,114.985558 
	C141.373367,113.289391 142.741669,111.593216 144.529999,109.376389 
	C145.250687,109.785301 146.568726,110.533150 147.944000,112.042770 
	C147.501877,116.706879 148.542831,119.539963 153.168167,120.256905 
	C153.858902,121.300278 154.379669,122.089516 154.591217,122.876862 
	C153.518036,122.582176 152.754059,122.289391 151.665726,121.851410 
	C149.923111,121.093239 148.504837,120.480263 146.885040,119.780174 
	C146.124008,121.887558 145.539642,123.505753 144.955261,125.123947 
	C142.680328,123.986198 140.405411,122.848457 137.927002,121.430588 
	C138.478836,119.369392 139.234192,117.588333 139.994629,115.403542 
	C139.999725,114.999817 140.005066,114.985558 140.005066,114.985558 
z"/>
<path fill="#3CD1F9" opacity="1.000000" stroke="none" 
	d="
M169.343628,127.842819 
	C170.106873,131.034225 170.870102,134.225647 171.633347,137.417053 
	C171.104141,137.630386 170.574936,137.843719 170.045715,138.057053 
	C169.074478,136.804398 168.103241,135.551743 167.416092,134.665512 
	C167.416092,139.221680 167.416092,144.102707 167.416092,149.679657 
	C164.995880,145.157440 163.013153,141.452682 161.244064,137.359009 
	C164.072098,134.779556 164.595901,132.354736 162.573410,129.404877 
	C162.245956,128.927261 162.836807,127.820038 163.304855,127.150635 
	C164.682663,128.413681 165.758774,129.529938 166.940414,130.755661 
	C167.822876,129.686066 168.583252,128.764450 169.343628,127.842819 
z"/>
<path fill="#34C5F0" opacity="1.000000" stroke="none" 
	d="
M163.003174,127.003853 
	C162.836807,127.820038 162.245956,128.927261 162.573410,129.404877 
	C164.595901,132.354736 164.072098,134.779556 161.082733,137.045166 
	C159.200851,135.710464 157.693939,134.300720 156.161453,132.273560 
	C157.757675,127.103157 159.379486,122.550179 161.001297,117.997208 
	C162.589752,119.116821 164.178207,120.236427 165.599762,121.705704 
	C164.622986,123.704872 163.813080,125.354362 163.003174,127.003853 
z"/>
<path fill="#2EB9E7" opacity="1.000000" stroke="none" 
	d="
M160.859894,117.710022 
	C159.379486,122.550179 157.757675,127.103157 155.989197,132.013214 
	C153.963791,131.124252 152.085068,129.878204 150.393158,128.270584 
	C151.050018,125.938202 151.520050,123.967407 151.990082,121.996605 
	C152.754059,122.289391 153.518036,122.582176 154.937439,122.763023 
	C156.396347,120.430756 157.199814,118.210434 158.003281,115.990112 
	C158.908340,116.467690 159.813416,116.945267 160.859894,117.710022 
z"/>
<path fill="#1A8AC1" opacity="1.000000" stroke="none" 
	d="
M132.986069,108.980560 
	C133.292267,107.575523 133.598480,106.170494 134.257904,104.413254 
	C135.397766,104.376709 136.184387,104.692368 136.971008,105.008034 
	C136.974579,107.393539 136.978134,109.779037 136.716309,112.380936 
	C135.819443,112.244385 135.187958,111.891441 134.556458,111.538498 
	C134.699722,112.371284 134.842987,113.204071 134.986252,114.036858 
	C134.648468,115.503403 134.310684,116.969955 133.950745,118.818207 
	C132.692932,118.446892 131.457275,117.693878 130.047089,116.687355 
	C130.213181,114.892052 130.553787,113.350266 131.259567,111.368317 
	C132.078522,110.278969 132.532288,109.629761 132.986069,108.980560 
z"/>
<path fill="#26ADDD" opacity="1.000000" stroke="none" 
	d="
M151.665726,121.851410 
	C151.520050,123.967407 151.050018,125.938202 150.191223,128.001892 
	C148.307098,127.284218 146.811752,126.473663 145.135834,125.393524 
	C145.539642,123.505753 146.124008,121.887558 146.885040,119.780174 
	C148.504837,120.480263 149.923111,121.093239 151.665726,121.851410 
z"/>
<path fill="#34CAF4" opacity="1.000000" stroke="none" 
	d="
M163.304871,127.150635 
	C163.813080,125.354362 164.622986,123.704872 165.789917,121.972931 
	C166.146973,121.890480 166.544449,121.924080 166.738922,121.966141 
	C167.696030,123.716911 168.458664,125.425629 169.282471,127.488579 
	C168.583252,128.764450 167.822876,129.686066 166.940414,130.755661 
	C165.758774,129.529938 164.682663,128.413681 163.304871,127.150635 
z"/>
<path fill="#F8FBFD" opacity="1.000000" stroke="none" 
	d="
M125.092194,97.038200 
	C120.703949,92.753021 116.315704,88.467834 111.927460,84.182655 
	C112.122131,83.690720 112.316803,83.198776 112.511475,82.706841 
	C117.035126,82.706841 121.570961,82.503624 126.078415,82.773788 
	C129.435623,82.975021 131.074921,81.811317 132.306396,78.608986 
	C136.470963,67.779488 141.001114,57.090572 145.830795,45.273045 
	C145.830795,58.376087 145.830795,70.274048 145.646622,82.870537 
	C143.995926,84.429924 142.529388,85.290794 140.749924,86.120438 
	C140.230515,86.124786 140.024048,86.160355 139.364075,86.143944 
	C133.686523,86.091972 128.462509,86.091972 122.426338,86.091972 
	C124.663628,89.264160 126.331558,91.629074 127.661568,94.042488 
	C126.579826,95.073395 125.836014,96.055794 125.092194,97.038200 
z"/>
<path fill="#637178" opacity="1.000000" stroke="none" 
	d="
M156.882828,76.921593 
	C158.427719,75.033432 159.972610,73.145271 161.705490,71.027367 
	C162.830078,73.252319 163.846588,75.263443 164.567413,77.692581 
	C164.492935,79.072731 164.714142,80.034874 164.935364,80.997009 
	C163.830353,83.236824 162.725327,85.476631 161.312073,87.440582 
	C162.050827,82.776474 159.333527,79.902664 156.882828,76.921593 
z"/>
<path fill="#A8AEB1" opacity="1.000000" stroke="none" 
	d="
M142.976379,99.823235 
	C141.525711,100.568031 140.075058,101.312836 137.953690,102.163712 
	C136.193497,101.831131 135.103989,101.392471 134.037598,100.625587 
	C134.366714,99.471161 134.672745,98.644951 135.088043,97.615097 
	C135.508865,97.072769 135.820389,96.734093 136.485474,96.290527 
	C138.889664,95.440376 140.940292,94.695114 142.993988,94.372269 
	C142.990158,96.470871 142.983276,98.147049 142.976379,99.823235 
z"/>
<path fill="#777A7C" opacity="1.000000" stroke="none" 
	d="
M158.991272,89.974052 
	C158.198547,90.611694 157.405823,91.249336 156.313599,91.570175 
	C156.010971,89.527069 156.007812,87.800751 156.116241,85.811768 
	C155.481567,85.365921 154.735291,85.182762 153.991943,84.602570 
	C153.609344,82.768227 153.223801,81.330902 152.838257,79.893585 
	C153.660812,79.240654 154.483383,78.587730 155.640869,78.279427 
	C157.126434,82.368729 160.378754,85.555038 158.991272,89.974052 
z"/>
<path fill="#83888B" opacity="1.000000" stroke="none" 
	d="
M152.523468,79.962379 
	C153.223801,81.330902 153.609344,82.768227 153.812622,84.866379 
	C153.082596,86.355843 152.534805,87.184464 151.993622,88.006989 
	C152.000229,88.000893 152.012451,87.987778 151.662292,87.928818 
	C150.196854,88.206947 149.081589,88.544037 147.976044,88.454269 
	C147.972260,86.307755 147.958710,84.588097 147.945175,82.868439 
	C149.366348,81.922684 150.787521,80.976929 152.523468,79.962379 
z"/>
<path fill="#9A9D9E" opacity="1.000000" stroke="none" 
	d="
M147.604401,82.915985 
	C147.958710,84.588097 147.972260,86.307755 147.689911,88.634842 
	C145.593399,90.133537 143.792740,91.024811 141.993927,91.537674 
	C141.684799,89.490051 141.373825,87.820854 141.062851,86.151657 
	C142.529388,85.290794 143.995926,84.429924 145.679626,83.346252 
	C146.352402,83.070137 146.807999,83.016838 147.604401,82.915985 
z"/>
<path fill="#21AADB" opacity="1.000000" stroke="none" 
	d="
M152.998199,120.002777 
	C148.542831,119.539963 147.501877,116.706879 148.002441,112.386856 
	C149.858948,112.449257 151.714249,112.929344 153.743591,114.074623 
	C153.611176,116.494133 153.304688,118.248459 152.998199,120.002777 
z"/>
<path fill="#29B6E5" opacity="1.000000" stroke="none" 
	d="
M153.168167,120.256905 
	C153.304688,118.248459 153.611176,116.494133 153.961121,114.357620 
	C155.210403,114.469757 156.416229,114.964088 157.812668,115.724258 
	C157.199814,118.210434 156.396347,120.430756 155.246658,122.764915 
	C154.379669,122.089516 153.858902,121.300278 153.168167,120.256905 
z"/>
<path fill="#9A9FA2" opacity="1.000000" stroke="none" 
	d="
M143.294952,99.758286 
	C142.983276,98.147049 142.990158,96.470871 143.187973,94.116043 
	C144.561218,92.944656 145.743530,92.451904 147.217072,92.208069 
	C147.680603,93.993599 147.852890,95.530205 148.025192,97.066818 
	C146.554642,97.942322 145.084091,98.817825 143.294952,99.758286 
z"/>
<path fill="#757A7C" opacity="1.000000" stroke="none" 
	d="
M159.259796,89.866814 
	C160.378754,85.555038 157.126434,82.368729 155.951965,78.199371 
	C156.035172,77.487648 156.220505,77.266121 156.683502,77.015854 
	C159.333527,79.902664 162.050827,82.776474 161.006317,87.596458 
	C160.515289,88.605316 160.021805,89.182449 159.259796,89.866814 
z"/>
<path fill="#8B9295" opacity="1.000000" stroke="none" 
	d="
M148.359924,97.015297 
	C147.852890,95.530205 147.680603,93.993599 147.428925,91.953484 
	C148.891769,90.616493 150.433990,89.783005 151.983154,89.350143 
	C152.378632,91.204109 152.767166,92.657448 153.155685,94.110794 
	C151.668671,95.061790 150.181656,96.012787 148.359924,97.015297 
z"/>
<path fill="#81878A" opacity="1.000000" stroke="none" 
	d="
M153.452316,94.050034 
	C152.767166,92.657448 152.378632,91.204109 152.003723,89.110291 
	C152.017349,88.469818 152.012451,87.987778 152.012451,87.987778 
	C152.012451,87.987778 152.000229,88.000893 152.319458,87.987030 
	C153.760681,87.340256 154.882660,86.707352 156.004654,86.074440 
	C156.007812,87.800751 156.010971,89.527069 156.024780,91.688988 
	C155.273270,92.746162 154.511108,93.367722 153.452316,94.050034 
z"/>
<path fill="#2B8ABE" opacity="1.000000" stroke="none" 
	d="
M125.319946,97.039673 
	C125.836014,96.055794 126.579826,95.073395 127.948669,94.173706 
	C129.573425,94.509819 130.573151,94.763214 131.626373,95.272980 
	C131.605881,95.687309 131.531876,95.845268 131.281555,96.214645 
	C131.002304,96.964264 130.899368,97.502457 130.796432,98.040649 
	C129.289322,97.561485 127.782204,97.082314 126.139099,96.826645 
	C126.003105,97.050148 125.547691,97.041145 125.319946,97.039673 
z"/>
<path fill="#1C8AC1" opacity="1.000000" stroke="none" 
	d="
M134.014496,100.953812 
	C135.103989,101.392471 136.193497,101.831131 137.640869,102.324066 
	C137.821213,103.138809 137.643677,103.899277 137.218567,104.833893 
	C136.184387,104.692368 135.397766,104.376709 134.289795,104.052475 
	C133.640503,103.336273 133.312546,102.628639 133.246750,101.541985 
	C133.677414,101.093246 133.845947,101.023529 134.014496,100.953812 
z"/>
<path fill="#2B8ABE" opacity="1.000000" stroke="none" 
	d="
M125.002457,101.996735 
	C124.561028,102.001968 124.119606,102.007195 123.347855,102.030380 
	C123.758453,101.032478 124.499367,100.016609 125.612076,98.986336 
	C125.738640,99.783829 125.493408,100.595726 125.124084,101.703812 
	C125.000000,102.000000 125.002457,101.996735 125.002457,101.996735 
z"/>
<path fill="#2296CA" opacity="1.000000" stroke="none" 
	d="
M135.291000,114.008118 
	C134.842987,113.204071 134.699722,112.371284 134.556458,111.538498 
	C135.187958,111.891441 135.819443,112.244385 136.701691,112.760941 
	C136.500229,113.276154 136.047989,113.627762 135.291000,114.008118 
z"/>
<path fill="#637077" opacity="1.000000" stroke="none" 
	d="
M164.982086,80.624100 
	C164.714142,80.034874 164.492935,79.072731 164.595596,78.057388 
	C164.955917,78.753189 164.992371,79.502190 164.982086,80.624100 
z"/>
<path fill="#2296CA" opacity="1.000000" stroke="none" 
	d="
M139.992554,115.002487 
	C139.471939,114.699730 138.958527,114.394310 138.445099,114.088890 
	C138.628525,113.876259 138.811951,113.663628 138.995377,113.450989 
	C139.307388,113.772476 139.619400,114.093971 139.968231,114.700508 
	C140.005066,114.985558 139.999725,114.999817 139.992554,115.002487 
z"/>
<path fill="#2B8ABE" opacity="1.000000" stroke="none" 
	d="
M124.998306,102.001572 
	C126.338242,103.666786 127.679855,105.330429 129.021469,106.994072 
	C128.362274,107.325287 127.703064,107.656509 127.043869,107.987732 
	C126.432907,106.179649 125.821945,104.371567 125.106720,102.280106 
	C125.002457,101.996735 125.000000,102.000000 124.998306,102.001572 
z"/>
<path fill="#499DC3" opacity="1.000000" stroke="none" 
	d="
M130.983444,98.057961 
	C130.899368,97.502457 131.002304,96.964264 131.683197,96.261902 
	C133.222000,95.725883 134.182831,95.354027 135.379333,95.158714 
	C135.787308,95.688644 135.959610,96.042023 136.131912,96.395416 
	C135.820389,96.734093 135.508865,97.072769 134.664291,97.675354 
	C133.266251,97.956085 132.401230,97.972908 131.536224,97.989731 
	C131.536224,97.989731 131.170456,98.075272 130.983444,98.057961 
z"/>
<path fill="#C7C8C8" opacity="1.000000" stroke="none" 
	d="
M131.662628,98.202560 
	C132.401230,97.972908 133.266251,97.956085 134.555023,97.879005 
	C134.672745,98.644951 134.366714,99.471161 134.037598,100.625587 
	C133.845947,101.023529 133.677414,101.093246 133.243439,101.229774 
	C132.824203,101.223267 132.670410,101.149940 132.158569,100.761017 
	C131.554962,99.970032 131.309387,99.494621 131.063828,99.019211 
	C131.432175,98.970009 131.673920,98.768730 131.662628,98.202560 
z"/>
<path fill="#2B8ABE" opacity="1.000000" stroke="none" 
	d="
M130.789139,99.123932 
	C131.309387,99.494621 131.554962,99.970032 131.910522,100.699432 
	C131.267090,101.005943 130.513657,101.058472 129.760223,101.110992 
	C130.011642,100.483551 130.263046,99.856102 130.789139,99.123932 
z"/>
<path fill="#1C8AC1" opacity="1.000000" stroke="none" 
	d="
M132.657501,108.985222 
	C132.532288,109.629761 132.078522,110.278969 131.300293,110.977928 
	C131.426880,110.348419 131.877899,109.669151 132.657501,108.985222 
z"/>
<path fill="#2E99C9" opacity="1.000000" stroke="none" 
	d="
M131.572891,95.016609 
	C130.573151,94.763214 129.573425,94.509819 128.286591,94.125214 
	C126.331558,91.629074 124.663628,89.264160 122.426338,86.091972 
	C128.462509,86.091972 133.686523,86.091972 139.183472,86.399376 
	C137.990143,88.084724 136.523911,89.462669 134.845245,90.589310 
	C133.255524,90.546524 131.878250,90.755043 130.513672,90.961632 
	C130.941223,92.598419 131.257065,93.807518 131.572891,95.016609 
z"/>
<path fill="#A5A9AB" opacity="1.000000" stroke="none" 
	d="
M135.057678,90.840622 
	C136.523911,89.462669 137.990143,88.084724 139.636993,86.451347 
	C140.024048,86.160355 140.230515,86.124786 140.749924,86.120438 
	C141.373825,87.820854 141.684799,89.490051 141.683685,91.732094 
	C139.267502,92.901085 137.163406,93.497238 135.041031,93.687500 
	C135.034393,92.467957 135.046036,91.654289 135.057678,90.840622 
z"/>
<path fill="#3693BC" opacity="1.000000" stroke="none" 
	d="
M135.059311,94.093384 
	C137.163406,93.497238 139.267502,92.901085 141.681839,92.110504 
	C143.792740,91.024811 145.593399,90.133537 147.680176,89.061691 
	C149.081589,88.544037 150.196854,88.206947 151.662292,87.928818 
	C152.012451,87.987778 152.017349,88.469818 151.996765,88.709671 
	C150.433990,89.783005 148.891769,90.616493 147.137695,91.704559 
	C145.743530,92.451904 144.561218,92.944656 143.184906,93.693634 
	C140.940292,94.695114 138.889664,95.440376 136.485474,96.290520 
	C135.959610,96.042023 135.787308,95.688644 135.328949,94.939224 
	C135.042877,94.543198 135.059311,94.093384 135.059311,94.093384 
z"/>
<path fill="#3693BC" opacity="1.000000" stroke="none" 
	d="
M156.116241,85.811768 
	C154.882660,86.707352 153.760681,87.340256 152.312851,87.993118 
	C152.534805,87.184464 153.082596,86.355843 153.809692,85.263412 
	C154.735291,85.182762 155.481567,85.365921 156.116241,85.811768 
z"/>
<path fill="#B4BABD" opacity="1.000000" stroke="none" 
	d="
M135.041031,93.687500 
	C135.059311,94.093384 135.042877,94.543198 135.093262,94.762680 
	C134.182831,95.354027 133.222000,95.725883 131.859528,96.050491 
	C131.531876,95.845268 131.605881,95.687309 131.626373,95.272980 
	C131.257065,93.807518 130.941223,92.598419 130.513672,90.961632 
	C131.878250,90.755043 133.255524,90.546524 134.845245,90.589310 
	C135.046036,91.654289 135.034393,92.467957 135.041031,93.687500 
z"/>
</svg>